<svg id="Layer_1" data-name="Layer 1" xmlns="http://www.w3.org/2000/svg" xmlns:xlink="http://www.w3.org/1999/xlink" viewBox="0 0 425.2 425.2"><defs><style>.cls-1{fill:#1e1e1e;}.cls-2{fill:url(#linear-gradient);}.cls-3{fill:url(#linear-gradient-2);}.cls-4{fill:#fff;}</style><linearGradient id="linear-gradient" x1="191.8" y1="210.25" x2="222.54" y2="295.63" gradientUnits="userSpaceOnUse"><stop offset="0" stop-color="gray"/><stop offset="1" stop-color="#fff"/></linearGradient><linearGradient id="linear-gradient-2" x1="191.8" y1="210.25" x2="222.54" y2="295.63" xlink:href="#linear-gradient"/></defs><title>Proscom_black-white</title><circle class="cls-1" cx="212.6" cy="212.6" r="141.73"/><path class="cls-2" d="M137.82,152.09a9.71,9.71,0,0,1,9.68-9.68h96.82c5.32,0,8.63,4.23,7.34,9.39L217.71,287.91a13.07,13.07,0,0,1-12,9.39H147.5a9.71,9.71,0,0,1-9.68-9.68Z"/><path class="cls-3" d="M137.82,152.09a9.71,9.71,0,0,1,9.68-9.68h96.82c5.32,0,8.63,4.23,7.34,9.39L217.71,287.91a13.07,13.07,0,0,1-12,9.39H147.5a9.71,9.71,0,0,1-9.68-9.68Z"/><path class="cls-4" d="M283,142.4H147.5a9.71,9.71,0,0,0-9.68,9.68V287.63c0,5.32,4,7.87,8.8,5.65l136.53-62.55a16.51,16.51,0,0,0,9.57-15V152.09A9.71,9.71,0,0,0,283,142.4Z"/></svg>